<svg version="1.1" id="Capa_1" xmlns:x="&ns_extend;" xmlns:i="&ns_ai;" xmlns:graph="&ns_graphs;"
	xmlns="http://www.w3.org/2000/svg" xmlns:xlink="http://www.w3.org/1999/xlink" x="0px" y="0px" width="300px" height="300px"
	viewBox="0 0 300 300" enable-background="new 0 0 300 300" xml:space="preserve">
<path d="M100.44,144.98c2.06,0.34,4.01,0.91,5.87,1.69v40.6c-2.05,1.48-4.43,2.671-7.12,3.57c-2.69,0.91-5.23,1.37-7.63,1.37
	c-6.17,0-10.64-1.83-13.43-5.49s-4.19-9.54-4.19-17.649c0-7.71,1.74-13.74,5.21-18.08c3.48-4.35,8.69-6.53,15.64-6.53
	C96.5,144.46,98.39,144.64,100.44,144.98z M300,61.21v177.58c0,33.66-27.54,61.21-61.21,61.21H61.21C27.54,300,0,272.45,0,238.79V0
	h238.79C272.46,0,300,27.54,300,61.21z M132.87,95.54h-26.56v35.17c-3.33-1.62-6.57-2.96-9.73-4.01c-3.16-1.06-7.22-1.58-12.16-1.58
	c-4.75,0-9.51,1.02-14.26,3.05c-4.75,2.04-8.79,4.89-12.12,8.57c-3.53,3.87-6.31,8.52-8.34,13.94c-2.03,5.419-3.05,11.64-3.05,18.65
	c0,13.14,3.01,23.59,9.04,31.34c6.02,7.75,14.06,11.62,24.1,11.62c5.19,0,9.77-0.88,13.74-2.65c3.96-1.76,8.23-4.51,12.78-8.239
	v8.609h26.56V95.54z M253.07,176.47c0-7.31-2.09-13.2-6.29-17.66c-4.19-4.46-9.87-7.409-17.03-8.83v-0.59
	c5.1-2.25,9.05-5.4,11.85-9.45c2.79-4.05,4.19-8.72,4.19-14.01c0-4.56-1.021-8.62-3.05-12.18c-2.04-3.55-5.141-6.39-9.311-8.5
	c-4.02-2.01-8.08-3.31-12.17-3.89c-4.1-0.59-10.56-0.89-19.39-0.89H159.35v109.54h47.82c7.94,0,14.5-0.689,19.68-2.06
	c5.17-1.37,9.92-3.681,14.23-6.91c3.729-2.75,6.66-6.21,8.79-10.38C252.01,186.5,253.07,181.76,253.07,176.47z M221.7,167.97
	c1.35,1.891,2.02,4.57,2.02,8.05c0,2.65-0.55,4.99-1.649,7.03c-1.101,2.03-3.12,3.67-6.061,4.891c-2.89,1.229-6.04,1.869-9.47,1.909
	c-3.42,0.051-9.1,0.08-17.03,0.08h-2.06v-27.3h6.17c4.21,0,8.25,0.03,12.12,0.08c3.859,0.05,6.899,0.39,9.1,1.03
	C218.07,164.67,220.36,166.08,221.7,167.97z M191.87,143.73h-4.42v-23.17h2.649c5.54,0,9.851,0.03,12.91,0.11
	c3.07,0.07,5.63,0.5,7.69,1.28c2.31,0.89,3.91,2.24,4.819,4.05c0.91,1.81,1.36,3.63,1.36,5.44c0,2.36-0.39,4.43-1.18,6.22
	c-0.78,1.79-2.45,3.25-5,4.38c-1.811,0.83-4.29,1.32-7.431,1.47C200.13,143.66,196.33,143.73,191.87,143.73z"/>
</svg>
