<svg width="300" height="300" viewBox="0 0 300 300" fill="none" xmlns="http://www.w3.org/2000/svg">
	<g>
		<path d="M300 61.2V238.8C300 272.5 272.5 300 238.8 300H61.2C27.5 300 0 272.4 0 238.8V0H238.8C272.5 0 300 27.5 300 61.2Z" fill="black"/>
		<path d="M100.4 145c2.1.3 4 .9 5.9 1.7v40.6c-2 1.5-4.4 2.7-7.1 3.6-2.7.9-5.2 1.4-7.6 1.4-6.2 0-10.6-1.8-13.4-5.5S74 177.3 74 169.2c0-7.7 1.7-13.7 5.2-18.1 3.5-4.3 8.7-6.5 15.6-6.5 1.7-.1 3.6 0 5.6.4Zm32.5-49.5H106.3v35.2c-3.3-1.6-6.6-3-9.7-4-3.2-1.1-7.2-1.6-12.2-1.6-4.8 0-9.5 1-14.3 3S61.3 133 58 136.7c-3.5 3.9-6.3 8.5-8.3 13.9s-3 11.6-3 18.6c0 13.1 3 23.6 9 31.3 6 7.8 14.1 11.6 24.1 11.6 5.2 0 9.8-.9 13.7-2.6 4-1.8 8.2-4.5 12.8-8.2v8.6h26.6V95.5Zm120.2 81c0-7.3-2.1-13.2-6.3-17.7s-9.9-7.4-17-8.8v-.6c5.1-2.3 9.1-5.4 11.8-9.4 2.8-4 4.2-8.7 4.2-14 0-4.6-1-8.6-3-12.2-2-3.5-5.1-6.4-9.3-8.5-4-2-8.1-3.3-12.2-3.9-4.1-.6-10.6-.9-19.4-.9H159.3V210h47.8c7.9 0 14.5-.7 19.7-2.1s9.9-3.7 14.2-6.9c3.7-2.8 6.7-6.2 8.8-10.4 2.2-4.1 3.3-8.8 3.3-14.1ZM221.7 168c1.4 1.9 2 4.6 2 8.1 0 2.6-.6 5-1.6 7-1.1 2-3.1 3.7-6.1 4.9-2.9 1.2-6 1.9-9.5 1.9-3.4.1-9.1.1-17 .1h-2.1V162.7h6.2c4.2 0 8.3 0 12.1.1 3.9.1 6.9.4 9.1 1 3.3.9 5.6 2.3 6.9 4.2Zm-29.8-24.3h-4.4V120.5h2.6c5.5 0 9.9 0 12.9.1 3.1.1 5.6.5 7.7 1.3 2.3.9 3.9 2.2 4.8 4s1.4 3.6 1.4 5.4c0 2.4-.4 4.4-1.2 6.2s-2.5 3.3-5 4.4c-1.8.8-4.3 1.3-7.4 1.5-3.2.3-7 .3-11.4.3Z" fill="white"/>
	</g>
</svg>

